<svg xmlns="http://www.w3.org/2000/svg" xmlns:xlink="http://www.w3.org/1999/xlink" width="51" height="46.5" viewBox="0 0 51 46.5"><defs><filter id="a" x="0" y="0" width="51" height="46.5" filterUnits="userSpaceOnUse"><feOffset dy="2" input="SourceAlpha"/><feGaussianBlur stdDeviation="0.5" result="b"/><feFlood flood-color="#306076" flood-opacity="0.78"/><feComposite operator="in" in2="b"/></filter><filter id="c" x="0" y="0" width="51" height="46.5" filterUnits="userSpaceOnUse"><feOffset dx="12" dy="2" input="SourceAlpha"/><feGaussianBlur stdDeviation="8.5" result="d"/><feFlood flood-color="#51c8ff" result="e"/><feComposite operator="out" in="SourceGraphic" in2="d"/><feComposite operator="in" in="e"/><feComposite operator="in" in2="SourceGraphic"/></filter></defs><g transform="translate(-7.5 -47)"><g data-type="innerShadowGroup"><g transform="matrix(1, 0, 0, 1, 7.5, 47)" filter="url(#a)"><g transform="translate(1.5)"><path d="M31.416,0l2.646,8.455,9.354-.242-3.135,8.3L48,21.5l-7.719,4.983,3.135,8.3-9.354-.242L31.416,43,24,37.625,16.584,43l-2.646-8.455-9.354.242,3.135-8.3L0,21.5l7.719-4.983-3.135-8.3,9.354.242L16.584,0,24,5.375Z" stroke="none"/><path d="M 17.12267112731934 1.625694274902344 L 14.66656112670898 9.473819732666016 L 6.044418334960938 9.250438690185547 L 8.939590454101562 16.91931915283203 L 1.843807220458984 21.5 L 8.939579010009766 26.08068084716797 L 6.044410705566406 33.74955368041992 L 14.66654968261719 33.52618026733398 L 17.12265205383301 41.37429809570312 L 24 36.38999176025391 L 30.87734794616699 41.37430572509766 L 33.33345031738281 33.52618026733398 L 41.95558166503906 33.74955368041992 L 39.06040954589844 26.08068084716797 L 46.15618896484375 21.5 L 39.06040954589844 16.91931915283203 L 41.95558166503906 9.250446319580078 L 33.33345031738281 9.473819732666016 L 30.87734794616699 1.625694274902344 L 24.00001907348633 6.610008239746094 L 17.12267112731934 1.625694274902344 M 16.58361053466797 0 L 24.00001907348633 5.375 L 31.41641044616699 0 L 34.06230926513672 8.454601287841797 L 43.41640090942383 8.212268829345703 L 40.28115081787109 16.51709938049316 L 48 21.5 L 40.28115081787109 26.48290061950684 L 43.41640090942383 34.7877311706543 L 34.06230926513672 34.5453987121582 L 31.41641044616699 43 L 24 37.625 L 16.58358955383301 42.9999885559082 L 13.93769073486328 34.5453987121582 L 4.583591461181641 34.7877311706543 L 7.718841552734375 26.48290061950684 L 0 21.5 L 7.718849182128906 16.51709938049316 L 4.583599090576172 8.212261199951172 L 13.93769836425781 8.454601287841797 L 16.58361053466797 0 Z" stroke="none" fill="rgba(7,7,7,0.95)"/></g></g><g transform="translate(9 47)"><path d="M31.416,0l2.646,8.455,9.354-.242-3.135,8.3L48,21.5l-7.719,4.983,3.135,8.3-9.354-.242L31.416,43,24,37.625,16.584,43l-2.646-8.455-9.354.242,3.135-8.3L0,21.5l7.719-4.983-3.135-8.3,9.354.242L16.584,0,24,5.375Z" stroke="none"/><path d="M 17.12267112731934 1.625694274902344 L 14.66656112670898 9.473819732666016 L 6.044418334960938 9.250438690185547 L 8.939590454101562 16.91931915283203 L 1.843807220458984 21.5 L 8.939579010009766 26.08068084716797 L 6.044410705566406 33.74955368041992 L 14.66654968261719 33.52618026733398 L 17.12265205383301 41.37429809570312 L 24 36.38999176025391 L 30.87734794616699 41.37430572509766 L 33.33345031738281 33.52618026733398 L 41.95558166503906 33.74955368041992 L 39.06040954589844 26.08068084716797 L 46.15618896484375 21.5 L 39.06040954589844 16.91931915283203 L 41.95558166503906 9.250446319580078 L 33.33345031738281 9.473819732666016 L 30.87734794616699 1.625694274902344 L 24.00001907348633 6.610008239746094 L 17.12267112731934 1.625694274902344 M 16.58361053466797 0 L 24.00001907348633 5.375 L 31.41641044616699 0 L 34.06230926513672 8.454601287841797 L 43.41640090942383 8.212268829345703 L 40.28115081787109 16.51709938049316 L 48 21.5 L 40.28115081787109 26.48290061950684 L 43.41640090942383 34.7877311706543 L 34.06230926513672 34.5453987121582 L 31.41641044616699 43 L 24 37.625 L 16.58358955383301 42.9999885559082 L 13.93769073486328 34.5453987121582 L 4.583591461181641 34.7877311706543 L 7.718841552734375 26.48290061950684 L 0 21.5 L 7.718849182128906 16.51709938049316 L 4.583599090576172 8.212261199951172 L 13.93769836425781 8.454601287841797 L 16.58361053466797 0 Z" stroke="none"/></g><g transform="matrix(1, 0, 0, 1, 7.5, 47)" filter="url(#c)"><g transform="translate(1.5)" fill="#fff"><path d="M31.416,0l2.646,8.455,9.354-.242-3.135,8.3L48,21.5l-7.719,4.983,3.135,8.3-9.354-.242L31.416,43,24,37.625,16.584,43l-2.646-8.455-9.354.242,3.135-8.3L0,21.5l7.719-4.983-3.135-8.3,9.354.242L16.584,0,24,5.375Z" stroke="none"/><path d="M 17.12267112731934 1.625694274902344 L 14.66656112670898 9.473819732666016 L 6.044418334960938 9.250438690185547 L 8.939590454101562 16.91931915283203 L 1.843807220458984 21.5 L 8.939579010009766 26.08068084716797 L 6.044410705566406 33.74955368041992 L 14.66654968261719 33.52618026733398 L 17.12265205383301 41.37429809570312 L 24 36.38999176025391 L 30.87734794616699 41.37430572509766 L 33.33345031738281 33.52618026733398 L 41.95558166503906 33.74955368041992 L 39.06040954589844 26.08068084716797 L 46.15618896484375 21.5 L 39.06040954589844 16.91931915283203 L 41.95558166503906 9.250446319580078 L 33.33345031738281 9.473819732666016 L 30.87734794616699 1.625694274902344 L 24.00001907348633 6.610008239746094 L 17.12267112731934 1.625694274902344 M 16.58361053466797 0 L 24.00001907348633 5.375 L 31.41641044616699 0 L 34.06230926513672 8.454601287841797 L 43.41640090942383 8.212268829345703 L 40.28115081787109 16.51709938049316 L 48 21.5 L 40.28115081787109 26.48290061950684 L 43.41640090942383 34.7877311706543 L 34.06230926513672 34.5453987121582 L 31.41641044616699 43 L 24 37.625 L 16.58358955383301 42.9999885559082 L 13.93769073486328 34.5453987121582 L 4.583591461181641 34.7877311706543 L 7.718841552734375 26.48290061950684 L 0 21.5 L 7.718849182128906 16.51709938049316 L 4.583599090576172 8.212261199951172 L 13.93769836425781 8.454601287841797 L 16.58361053466797 0 Z" stroke="none"/></g></g><g transform="translate(9 47)" fill="none"><path d="M31.416,0l2.646,8.455,9.354-.242-3.135,8.3L48,21.5l-7.719,4.983,3.135,8.3-9.354-.242L31.416,43,24,37.625,16.584,43l-2.646-8.455-9.354.242,3.135-8.3L0,21.5l7.719-4.983-3.135-8.3,9.354.242L16.584,0,24,5.375Z" stroke="none"/><path d="M 17.12267112731934 1.625694274902344 L 14.66656112670898 9.473819732666016 L 6.044418334960938 9.250438690185547 L 8.939590454101562 16.91931915283203 L 1.843807220458984 21.5 L 8.939579010009766 26.08068084716797 L 6.044410705566406 33.74955368041992 L 14.66654968261719 33.52618026733398 L 17.12265205383301 41.37429809570312 L 24 36.38999176025391 L 30.87734794616699 41.37430572509766 L 33.33345031738281 33.52618026733398 L 41.95558166503906 33.74955368041992 L 39.06040954589844 26.08068084716797 L 46.15618896484375 21.5 L 39.06040954589844 16.91931915283203 L 41.95558166503906 9.250446319580078 L 33.33345031738281 9.473819732666016 L 30.87734794616699 1.625694274902344 L 24.00001907348633 6.610008239746094 L 17.12267112731934 1.625694274902344 M 16.58361053466797 0 L 24.00001907348633 5.375 L 31.41641044616699 0 L 34.06230926513672 8.454601287841797 L 43.41640090942383 8.212268829345703 L 40.28115081787109 16.51709938049316 L 48 21.5 L 40.28115081787109 26.48290061950684 L 43.41640090942383 34.7877311706543 L 34.06230926513672 34.5453987121582 L 31.41641044616699 43 L 24 37.625 L 16.58358955383301 42.9999885559082 L 13.93769073486328 34.5453987121582 L 4.583591461181641 34.7877311706543 L 7.718841552734375 26.48290061950684 L 0 21.5 L 7.718849182128906 16.51709938049316 L 4.583599090576172 8.212261199951172 L 13.93769836425781 8.454601287841797 L 16.58361053466797 0 Z" stroke="none" fill="rgba(7,7,7,0.95)"/></g></g><text transform="translate(17 64)" fill="#fff" font-size="6" font-family="ImprintMT-Shadow, Imprint MT Shadow"><tspan x="6.502" y="6">BASIC</tspan></text></g></svg>