<svg xmlns="http://www.w3.org/2000/svg" width="27.125" height="27" viewBox="0 0 27.125 27">
  <path id="Icon_material-business-center" data-name="Icon material-business-center" d="M13.85,24V22.5H4.37l-.014,6a2.857,2.857,0,0,0,2.713,3H26.056a2.857,2.857,0,0,0,2.712-3v-6H19.275V24ZM27.413,10.5H21.974v-3l-2.712-3H13.836l-2.712,3v3H5.712A2.876,2.876,0,0,0,3,13.5V18a2.857,2.857,0,0,0,2.712,3H13.85V18h5.425v3h8.138a2.876,2.876,0,0,0,2.712-3V13.5A2.876,2.876,0,0,0,27.413,10.5Zm-8.138,0H13.85v-3h5.425Z" transform="translate(-3 -4.5)"/>
</svg>
