<svg xmlns="http://www.w3.org/2000/svg" width="29.25" height="29.25" viewBox="0 0 29.25 29.25">
  <path id="Icon_ionic-ios-contacts" data-name="Icon ionic-ios-contacts" d="M18,3.375A14.625,14.625,0,1,0,32.625,18,14.623,14.623,0,0,0,18,3.375ZM28.076,21.93c-.57-.183-1.666-.239-2.074-.731-.2-.246-.07-1.167-.07-1.167a4.436,4.436,0,0,0,2.18-.429c.274-.162.148-.19.007-.429-.766-1.287-.422-2.918-.457-4.331a3.587,3.587,0,0,0-1.406-3.122,4.479,4.479,0,0,0-2.208-.485,4.937,4.937,0,0,0-1.779.288c-2.981,1.2-1.223,5.147-2.243,7.411-.176.38-.429.513.014.738a5.438,5.438,0,0,0,2.032.443s.021.886,0,.977c-.077.345-.83.584-1.111.661a9.261,9.261,0,0,0-1.153.4.28.28,0,0,0,.056.534,5.436,5.436,0,0,1,.809.2,7.644,7.644,0,0,1,3.234,1.758,4.8,4.8,0,0,1,1.406,3.136.872.872,0,0,1-.387.809l-.4.253a.2.2,0,0,1-.3-.169h0A4.791,4.791,0,0,0,21,24.1c-.949-.33-1.976-.352-2.925-.682-.288-.1-.858-.218-.977-.548a3.986,3.986,0,0,1-.134-1.041q-.021-.4-.021-.8c0-.176.45-.548.548-.71a5.346,5.346,0,0,0,.485-2.2c.612.169.689-.963.795-1.308.077-.239.352-1.47-.183-1.659a2.957,2.957,0,0,0,.3-1.034,6.212,6.212,0,0,0-.077-2.763,4.354,4.354,0,0,0-4.17-2.911A4.47,4.47,0,0,0,10.174,11.1a5.8,5.8,0,0,0-.2,2.777,3.479,3.479,0,0,0,.33,1.273c-.45.2-.316,1.245-.239,1.5.113.359.211,1.645.851,1.47a10.058,10.058,0,0,0,.274,1.709,2.556,2.556,0,0,0,.577.977c.127.141.19.155.183.337a7.021,7.021,0,0,1-.134,1.673c-.141.534-1.315.759-1.786.858a10.363,10.363,0,0,0-2.911.809A12.662,12.662,0,0,1,17.88,5.344a12.705,12.705,0,0,1,8.986,3.621A12.687,12.687,0,0,1,29.644,23,3.322,3.322,0,0,0,28.076,21.93Z" transform="translate(-3.375 -3.375)"/>
</svg>
