<svg xmlns="http://www.w3.org/2000/svg" width="8.333" height="15" viewBox="0 0 8.333 15"><path d="M6.056,6.838,2.93,5.912a.865.865,0,0,1,.24-1.693H5.089a1.752,1.752,0,0,1,.99.308.447.447,0,0,0,.564-.059l1.007-1A.479.479,0,0,0,7.6,2.754a4.061,4.061,0,0,0-2.5-.879V.469A.467.467,0,0,0,4.632,0H3.706a.467.467,0,0,0-.463.469V1.875H3.171a3.2,3.2,0,0,0-3.155,3.5,3.341,3.341,0,0,0,2.425,2.83l2.966.879a.868.868,0,0,1,.614.829.859.859,0,0,1-.854.864H3.249a1.752,1.752,0,0,1-.99-.308.447.447,0,0,0-.564.059l-1.007,1a.479.479,0,0,0,.052.718,4.061,4.061,0,0,0,2.5.879v1.406A.467.467,0,0,0,3.706,15h.926a.467.467,0,0,0,.463-.469V13.119a3.271,3.271,0,0,0,3.059-2.13,3.225,3.225,0,0,0-2.1-4.151Z" transform="translate(-0.003)" fill="#16c22d"/></svg>