<svg xmlns="http://www.w3.org/2000/svg" width="27.125" height="27.438" viewBox="0 0 27.125 27.438">
  <path id="Icon_awesome-info-circle" data-name="Icon awesome-info-circle" d="M14.125.563A13.643,13.643,0,0,0,.563,14.281,13.641,13.641,0,0,0,14.125,28,13.641,13.641,0,0,0,27.688,14.281,13.643,13.643,0,0,0,14.125.563Zm0,6.085a2.323,2.323,0,1,1-2.3,2.323A2.31,2.31,0,0,1,14.125,6.647ZM17.188,20.7a.66.66,0,0,1-.656.664H11.719a.66.66,0,0,1-.656-.664V19.37a.66.66,0,0,1,.656-.664h.656v-3.54h-.656a.66.66,0,0,1-.656-.664V13.175a.66.66,0,0,1,.656-.664h3.5a.66.66,0,0,1,.656.664v5.532h.656a.66.66,0,0,1,.656.664Z" transform="translate(-0.563 -0.563)"/>
</svg>
