<svg xmlns="http://www.w3.org/2000/svg" width="15.339" height="15" viewBox="0 0 15.339 15">
  <path id="Star" d="M17.007,8.567H11.97l-1.53-4.81a.545.545,0,0,0-1.041,0l-1.53,4.81H2.8a.565.565,0,0,0-.548.577.446.446,0,0,0,.01.1.562.562,0,0,0,.229.407l4.139,3.072L5.04,17.585a.6.6,0,0,0,.188.649.517.517,0,0,0,.308.141.65.65,0,0,0,.342-.13l4.04-3.032,4.04,3.032a.622.622,0,0,0,.342.13.48.48,0,0,0,.3-.141.589.589,0,0,0,.188-.649l-1.589-4.864,4.105-3.1.1-.09a.618.618,0,0,0,.178-.386A.594.594,0,0,0,17.007,8.567Z" transform="translate(-2.25 -3.375)" fill="#ebca27"/>
</svg>
